<svg width="40" height="44" viewBox="0 0 40 44" fill="none" xmlns="http://www.w3.org/2000/svg">
<path d="M29.4801 39.5135H10.1709V13.3296H29.4801V39.5135Z" fill="#FF2E17"/>
<path d="M0.21572 4.88572L0 5.00305V43.9996C5.8336 41.2775 12.3052 39.6818 19.1256 39.4894V34.5333C15.4675 34.1343 12.6632 31.8393 12.6632 29.0656C12.6632 27.5449 13.5123 26.1604 14.88 25.1607C14.2512 24.4427 13.8932 23.7668 13.8932 22.678C13.8932 21.5845 14.5909 20.4111 15.72 19.5757C15.3574 19.0642 15.1508 18.4493 15.1508 17.1117C15.1508 15.7789 16.8353 13.3947 20.2638 13.3947C23.6878 13.3947 25.3768 15.7789 25.3768 17.1117C25.3768 18.4493 25.1703 19.0642 24.8077 19.5757C25.9414 20.4111 26.6344 21.5845 26.6344 22.678C26.6344 23.7668 26.2719 24.4427 25.6431 25.1607C27.0154 26.1604 27.8599 27.5402 27.8599 29.0656C27.8599 31.8393 25.0602 34.1343 21.4021 34.5333V39.48C28.0068 39.5973 34.2902 41.0288 39.9907 43.5256V4.88572H31.2334V11.0949L28.25 10.9776V0H11.6213L11.6259 13.329H8.72057L8.71597 4.88572H0.21572V4.88572Z" fill="#FF3017"/>
<path d="M8.71597 4.88623H0V44.0001L3.78197 42.4279L7.62361 41.1982L11.6259 40.3065V10.9781L8.71597 11.0955V4.88623Z" fill="#293EA1"/>
<path d="M31.2794 4.88623H40V44.0001L36.218 42.4279L32.3763 41.1982L28.3787 40.3065V10.9781L31.2794 11.0955V4.88623V4.88623Z" fill="#95CC45"/>
<path d="M27.7646 28.1498C27.6406 29.0885 27.5259 29.6704 27.122 30.2946C27.0485 30.4073 26.9476 30.5199 26.865 30.6466C26.6401 30.9939 25.4192 32.1156 25.0199 32.3597C24.9051 32.4301 24.2901 32.7492 24.1662 32.7962C24.0055 32.8525 23.3079 33.1294 23.1335 33.1904C22.4266 33.4298 21.4398 33.1435 21.0359 33.7583C20.935 35.5136 21.0176 37.4566 20.99 39.2823H19.1496C19.122 37.4566 19.2092 35.5136 19.1037 33.7583C18.7961 33.1716 17.768 33.4298 17.052 33.1904C16.8684 33.1294 16.157 32.8619 15.978 32.7962C15.8036 32.7305 13.9539 31.5477 13.8759 31.482C13.8254 31.4398 12.7193 29.9943 12.5908 29.6C12.4439 29.126 12.3796 27.9762 12.3796 27.9339C12.5219 27.1595 12.5678 26.5682 12.8478 26.0894C13.1737 25.5356 13.6326 24.8739 13.7933 24.7284C13.9493 24.5923 14.6745 24.2215 14.6057 23.8132C14.5781 23.6395 14.3349 23.5645 14.2201 23.4143C14.1742 23.358 14.0824 23.1514 14.009 23.0247C13.7428 22.5789 13.5959 20.9644 13.8346 20.3026C13.9218 20.0726 14.1651 19.6221 14.3073 19.4297C14.6286 18.9791 15.4594 18.5286 15.464 18.0264C15.4686 17.5523 15.0096 17.2848 14.9361 16.9094C14.8122 16.2476 14.927 15.323 15.0784 14.8255C15.1243 14.666 15.3263 14.3327 15.464 14.1262C15.9367 13.4222 17.0245 12.6854 17.13 12.6525C17.3091 12.5915 18.5575 12.0659 18.8053 12.0236C19.4617 11.9157 20.7973 11.911 21.3802 12.0236C21.8162 12.1081 23.4043 12.6479 23.8816 13.0468C24.3589 13.441 24.9648 14.2858 25.1071 14.9616C25.2081 15.4404 25.2172 16.5386 25.1071 16.9938C25.0199 17.3646 24.6527 17.7025 24.6802 18.0686C24.7169 18.6412 25.0382 18.5473 25.4054 18.904C25.7083 19.195 26.1765 19.9459 26.305 20.3495C26.6401 21.3868 26.3601 22.776 25.9654 23.3298C25.846 23.4987 25.5156 23.6724 25.5385 23.9446C25.5569 24.2638 26.126 24.5313 26.3509 24.7284C26.4381 24.8082 26.5896 25.0335 26.7364 25.2165C26.9981 25.5497 27.4341 26.1552 27.5488 26.5259C27.7003 27.0187 27.7646 28.0935 27.7646 28.1498V28.1498Z" fill="white"/>
</svg>

